<?xml version="1.0" encoding="iso-8859-1"?>
<!-- Generator: Adobe Illustrator 19.0.0, SVG Export Plug-In . SVG Version: 6.00 Build 0)  -->
<svg version="1.1" id="Capa_1" xmlns="http://www.w3.org/2000/svg" xmlns:xlink="http://www.w3.org/1999/xlink" x="0px" y="0px"
	 viewBox="0 0 512.002 512.002" style="enable-background:new 0 0 512.002 512.002;" xml:space="preserve">
<g>
	<g>
		<path d="M442.709,182.582L391,156.728V15c0-8.291-6.709-15-15-15c-8.291,0-15,6.709-15,15v15H151V15h0.001c0-8.291-6.709-15-15-15
			c-8.291,0-15,6.709-15,15v141.728l-51.709,25.854c-4.175,2.082-8.291,7.646-8.291,13.418v90c0,24.814,20.186,45,45,45h25.01
			l99.999,75l-104.004,79.003c-6.636,4.966-7.983,14.37-3.003,20.991c4.951,6.626,14.347,7.986,20.991,3.003L256,424.743
			l111.006,84.254c6.645,4.983,16.04,3.623,20.991-3.003c4.98-6.621,3.633-16.025-3.003-20.991L280.991,406l99.999-75H406
			c24.814,0,45-20.186,45-45v-90C451,190.122,446.995,184.719,442.709,182.582z M121.001,241h-15c-5.284,0-10.285,1.082-15,2.763
			v-38.491l30-15V241z M256.001,387.257L180.992,331H331.01L256.001,387.257z M361.001,241h-210v-60h210V241z M421.001,243.763
			c-4.715-1.681-9.716-2.763-15-2.763h-15v-50.728l30,15V243.763z"/>
	</g>
</g>
<g>
</g>
<g>
</g>
<g>
</g>
<g>
</g>
<g>
</g>
<g>
</g>
<g>
</g>
<g>
</g>
<g>
</g>
<g>
</g>
<g>
</g>
<g>
</g>
<g>
</g>
<g>
</g>
<g>
</g>
</svg>
