<?xml version="1.0" standalone="no"?>
<!DOCTYPE svg PUBLIC "-//W3C//DTD SVG 20010904//EN"
 "http://www.w3.org/TR/2001/REC-SVG-20010904/DTD/svg10.dtd">
<svg version="1.0" xmlns="http://www.w3.org/2000/svg"
 width="984.000000pt" height="1280.000000pt" viewBox="0 0 984.000000 1280.000000"
 preserveAspectRatio="xMidYMid meet">
<metadata>
Created by potrace 1.15, written by Peter Selinger 2001-2017
</metadata>
<g transform="translate(0.000000,1280.000000) scale(0.100000,-0.100000)"
fill="#000000" stroke="none">
<path d="M5273 10869 l-1998 -1931 -63 5 c-35 4 -88 14 -117 23 -63 20 -57 22
-206 -62 l-97 -54 -7 -67 c-12 -117 -41 -173 -205 -404 -41 -58 -100 -146
-129 -195 l-55 -91 -370 -32 c-204 -18 -558 -49 -786 -70 l-415 -36 0 -190 0
-190 35 -5 35 -5 -3 -115 c-5 -156 -30 -373 -49 -424 -37 -95 -119 -168 -231
-207 -31 -11 -124 -33 -207 -50 -231 -47 -278 -64 -336 -118 -65 -59 -68 -74
-69 -369 l0 -232 25 -12 c23 -10 24 -16 27 -106 l3 -95 515 -182 c842 -298
1004 -355 1005 -358 1 -1 10 -272 20 -602 9 -330 22 -775 29 -990 7 -226 9
-400 3 -415 -4 -14 -20 -37 -34 -52 l-25 -26 36 -216 c20 -118 36 -217 36
-220 0 -3 18 -11 40 -17 60 -18 52 -52 -16 -63 -124 -21 -182 -142 -121 -251
38 -66 76 -85 175 -85 73 0 91 4 128 25 49 29 84 91 84 148 0 23 12 58 30 90
17 30 30 64 30 76 0 15 9 25 29 32 34 12 28 -9 71 282 l31 208 -32 36 -32 37
6 105 c4 59 20 248 36 421 17 173 49 524 72 780 23 256 43 466 45 468 2 3 560
-193 1274 -447 l195 -69 3 -1045 2 -1046 -32 -9 c-18 -5 -77 -20 -131 -33 -64
-15 -107 -31 -123 -46 -23 -22 -24 -26 -24 -188 l0 -165 -50 0 c-27 0 -83 5
-125 11 -65 10 -82 9 -119 -5 -97 -37 -102 -125 -12 -182 42 -26 152 -23 290
9 101 24 110 25 133 10 24 -16 24 -16 -46 -34 -84 -21 -124 -41 -145 -71 -38
-54 1 -117 84 -136 120 -28 225 -4 347 80 l43 29 40 -21 41 -21 -38 -28 c-78
-58 -113 -110 -113 -170 0 -36 51 -87 99 -101 100 -28 145 -2 203 115 23 47
45 85 49 85 3 0 64 -26 136 -58 l129 -59 185 81 184 82 3 188 2 188 -26 31
c-15 18 -42 38 -60 46 -22 8 -34 20 -34 32 0 17 1031 2031 1051 2053 14 16 23
-2 9 -19 -9 -10 -10 -19 -3 -26 5 -5 77 -31 159 -58 82 -27 210 -73 286 -102
l136 -54 6 -100 c3 -55 10 -278 16 -495 6 -217 15 -543 20 -725 5 -181 14
-499 20 -705 5 -206 13 -447 16 -536 l6 -160 -46 -57 -46 -56 15 -88 c9 -48
31 -177 50 -286 19 -108 37 -201 40 -206 3 -5 28 -17 55 -26 55 -18 55 -18 40
-46 -8 -14 -22 -19 -53 -19 -132 -1 -223 -164 -159 -285 53 -98 94 -120 223
-119 74 1 104 6 135 22 75 38 114 102 114 185 0 41 7 67 28 103 15 27 32 62
37 79 9 27 16 31 83 44 59 12 73 19 77 35 7 35 65 579 65 611 0 19 -13 46 -35
74 -31 39 -35 50 -30 85 5 40 235 2565 235 2585 0 5 13 12 29 16 24 5 32 15
51 68 58 162 137 282 272 413 112 108 201 173 328 239 l115 60 3 48 c2 26 9
50 15 53 7 2 93 22 192 44 99 22 212 48 250 58 l70 19 7 -46 c3 -25 7 -75 7
-109 1 -59 -1 -66 -29 -90 -37 -33 -37 -35 3 -276 l32 -189 42 -15 c37 -12 41
-16 33 -32 -5 -10 -26 -21 -47 -25 -56 -10 -86 -29 -118 -75 -40 -58 -40 -124
1 -182 43 -61 71 -77 134 -79 146 -4 225 53 234 167 2 27 15 74 30 104 14 30
26 63 26 72 0 10 11 19 29 23 32 7 26 -21 72 317 l23 168 -27 28 c-38 39 -41
72 -23 250 l15 153 37 41 c46 51 70 105 83 188 7 40 11 275 11 606 l0 540 173
23 c229 30 217 26 217 67 0 37 -9 34 155 57 l90 13 -3 89 -4 90 56 19 c32 11
68 33 88 53 l33 34 3 661 c2 620 1 662 -15 681 -41 44 -126 68 -346 96 -340
44 -727 71 -1029 71 -89 0 -227 3 -305 7 l-142 6 -22 51 c-12 27 -39 85 -59
128 l-39 78 112 66 c267 159 693 471 1130 827 222 181 307 296 342 462 32 153
16 279 -46 350 -85 97 -287 185 -656 289 -487 137 -871 289 -944 375 -45 52
-69 126 -48 146 29 27 476 376 1012 789 l557 429 0 48 c0 42 -3 49 -22 54 -13
2 -466 81 -1008 175 -542 94 -997 173 -1012 176 -24 5 -202 -164 -2025 -1927z
m2347 -2455 c11 -26 20 -50 20 -54 0 -4 -107 -10 -237 -13 -131 -4 -353 -11
-493 -17 -140 -5 -448 -16 -685 -25 -236 -8 -483 -17 -547 -21 -76 -4 -118 -2
-118 4 0 6 33 13 73 16 68 5 738 34 1324 56 281 11 423 30 548 74 39 13 75 25
82 25 7 1 21 -20 33 -45z m-3492 -4018 c53 -19 105 -37 114 -41 16 -6 17 -45
18 -514 l0 -508 -69 -139 c-38 -76 -92 -182 -120 -234 l-51 -95 0 783 c0 430
2 782 5 782 3 0 50 -15 103 -34z m539 -191 c18 -8 33 -18 32 -22 0 -4 -27 -60
-59 -123 l-59 -115 0 144 -1 143 27 -7 c15 -3 42 -13 60 -20z m336 -119 l94
-34 139 33 c76 19 140 32 141 31 2 -1 -176 -350 -395 -774 l-397 -772 -3 478
-2 477 152 298 c84 163 158 297 165 297 7 0 54 -15 106 -34z m-744 -1507 c0
-172 -2 -315 -4 -320 -3 -4 -57 16 -120 44 l-114 52 -1 43 c0 36 19 81 116
268 63 123 117 224 119 224 2 0 4 -140 4 -311z"/>
</g>
</svg>
